<svg width="408" height="408" viewBox="0 0 408 408" fill="none" xmlns="http://www.w3.org/2000/svg">
<g opacity="0.5">
<g clip-path="url(#paint0_diamond_9482_17906_clip_path)" data-figma-skip-parse="true"><g transform="matrix(-0.158553 0.258228 -0.253681 -0.395686 243.553 34)"><rect x="0" y="0" width="1007.6" height="484.101" fill="url(#paint0_diamond_9482_17906)" opacity="1" shape-rendering="crispEdges"/><rect x="0" y="0" width="1007.6" height="484.101" transform="scale(1 -1)" fill="url(#paint0_diamond_9482_17906)" opacity="1" shape-rendering="crispEdges"/><rect x="0" y="0" width="1007.6" height="484.101" transform="scale(-1 1)" fill="url(#paint0_diamond_9482_17906)" opacity="1" shape-rendering="crispEdges"/><rect x="0" y="0" width="1007.6" height="484.101" transform="scale(-1)" fill="url(#paint0_diamond_9482_17906)" opacity="1" shape-rendering="crispEdges"/></g></g><path d="M125.98 235.081L144.749 252.971C150.014 257.99 153 264.987 153 272.31C153 283.31 161.806 292.228 172.669 292.228H235.331C246.194 292.228 255 283.31 255 272.31C255 264.987 257.986 257.99 263.251 252.971L282.02 235.081C308.22 209.917 322.851 176.859 322.999 142.489L323 141.045C323 82.3213 269.722 34 204 34C138.278 34 85 82.3213 85 141.045L85.0011 142.489C85.1488 176.859 99.7797 209.917 125.98 235.081Z" data-figma-gradient-fill="{&#34;type&#34;:&#34;GRADIENT_DIAMOND&#34;,&#34;stops&#34;:[{&#34;color&#34;:{&#34;r&#34;:0.95294117927551270,&#34;g&#34;:0.87450981140136719,&#34;b&#34;:0.73333334922790527,&#34;a&#34;:1.0},&#34;position&#34;:0.0},{&#34;color&#34;:{&#34;r&#34;:0.81568628549575806,&#34;g&#34;:0.62352943420410156,&#34;b&#34;:0.27450981736183167,&#34;a&#34;:1.0},&#34;position&#34;:1.0}],&#34;stopsVar&#34;:[{&#34;color&#34;:{&#34;r&#34;:0.95294117927551270,&#34;g&#34;:0.87450981140136719,&#34;b&#34;:0.73333334922790527,&#34;a&#34;:1.0},&#34;position&#34;:0.0},{&#34;color&#34;:{&#34;r&#34;:0.81568628549575806,&#34;g&#34;:0.62352943420410156,&#34;b&#34;:0.27450981736183167,&#34;a&#34;:1.0},&#34;position&#34;:1.0}],&#34;transform&#34;:{&#34;m00&#34;:-317.10601806640625,&#34;m01&#34;:-507.36148071289062,&#34;m02&#34;:655.78674316406250,&#34;m10&#34;:516.455566406250,&#34;m11&#34;:-791.37139892578125,&#34;m12&#34;:171.45793151855469},&#34;opacity&#34;:1.0,&#34;blendMode&#34;:&#34;NORMAL&#34;,&#34;visible&#34;:true}"/>
</g>
<path fill-rule="evenodd" clip-rule="evenodd" d="M157.25 318.048C157.25 310.917 162.958 305.137 170 305.137H238C245.042 305.137 250.75 310.917 250.75 318.048C250.75 325.179 245.042 330.96 238 330.96H170C162.958 330.96 157.25 325.179 157.25 318.048ZM168.583 361.086C168.583 353.955 174.292 348.175 181.333 348.175H226.667C233.708 348.175 239.417 353.955 239.417 361.086C239.417 368.217 233.708 373.997 226.667 373.997H181.333C174.292 373.997 168.583 368.217 168.583 361.086Z" fill="#171A26"/>
<defs>
<clipPath id="paint0_diamond_9482_17906_clip_path"><path d="M125.98 235.081L144.749 252.971C150.014 257.99 153 264.987 153 272.31C153 283.31 161.806 292.228 172.669 292.228H235.331C246.194 292.228 255 283.31 255 272.31C255 264.987 257.986 257.99 263.251 252.971L282.02 235.081C308.22 209.917 322.851 176.859 322.999 142.489L323 141.045C323 82.3213 269.722 34 204 34C138.278 34 85 82.3213 85 141.045L85.0011 142.489C85.1488 176.859 99.7797 209.917 125.98 235.081Z"/></clipPath><linearGradient id="paint0_diamond_9482_17906" x1="0" y1="0" x2="500" y2="500" gradientUnits="userSpaceOnUse">
<stop stop-color="#F3DFBB"/>
<stop offset="1" stop-color="#D09F46"/>
</linearGradient>
</defs>
</svg>
