<svg width="418" height="418" viewBox="0 0 418 418" fill="none" xmlns="http://www.w3.org/2000/svg">
<g clip-path="url(#paint0_diamond_9482_17910_clip_path)" data-figma-skip-parse="true"><g transform="matrix(-0.232056 0.186687 -0.371283 -0.286064 266.889 52.25)"><rect x="0" y="0" width="1007.27" height="483.855" fill="url(#paint0_diamond_9482_17910)" opacity="1" shape-rendering="crispEdges"/><rect x="0" y="0" width="1007.27" height="483.855" transform="scale(1 -1)" fill="url(#paint0_diamond_9482_17910)" opacity="1" shape-rendering="crispEdges"/><rect x="0" y="0" width="1007.27" height="483.855" transform="scale(-1 1)" fill="url(#paint0_diamond_9482_17910)" opacity="1" shape-rendering="crispEdges"/><rect x="0" y="0" width="1007.27" height="483.855" transform="scale(-1)" fill="url(#paint0_diamond_9482_17910)" opacity="1" shape-rendering="crispEdges"/></g></g><path opacity="0.5" d="M40.8584 195.939C37.0031 184.384 34.8333 172.777 34.8333 161.286C34.8333 58.3371 130.628 11.5409 209 95.7702C287.372 11.5409 383.167 58.3338 383.167 161.285C383.167 172.776 380.997 184.384 377.142 195.939H324.579L322.629 195.937C313.123 195.921 304.682 195.907 297 199.329C289.318 202.75 283.68 209.035 277.331 216.113L276.028 217.565L258.101 237.483C256.311 239.473 253.202 239.415 251.498 237.35L189.648 162.379C187.217 159.431 184.617 156.276 182.073 153.936C179.111 151.209 174.732 148.143 168.61 147.775C162.488 147.407 157.773 149.928 154.506 152.28C151.7 154.299 148.741 157.12 145.975 159.756L119.334 185.129C111.117 192.954 109.403 194.287 107.61 195.005C105.816 195.722 103.655 195.939 92.3083 195.939H40.8584Z" data-figma-gradient-fill="{&#34;type&#34;:&#34;GRADIENT_DIAMOND&#34;,&#34;stops&#34;:[{&#34;color&#34;:{&#34;r&#34;:0.95294117927551270,&#34;g&#34;:0.61568629741668701,&#34;b&#34;:0.58039218187332153,&#34;a&#34;:1.0},&#34;position&#34;:0.0},{&#34;color&#34;:{&#34;r&#34;:0.81568628549575806,&#34;g&#34;:0.15294118225574493,&#34;b&#34;:0.078431375324726105,&#34;a&#34;:1.0},&#34;position&#34;:1.0}],&#34;stopsVar&#34;:[{&#34;color&#34;:{&#34;r&#34;:0.95294117927551270,&#34;g&#34;:0.61568629741668701,&#34;b&#34;:0.58039218187332153,&#34;a&#34;:1.0},&#34;position&#34;:0.0},{&#34;color&#34;:{&#34;r&#34;:0.81568628549575806,&#34;g&#34;:0.15294118225574493,&#34;b&#34;:0.078431375324726105,&#34;a&#34;:1.0},&#34;position&#34;:1.0}],&#34;transform&#34;:{&#34;m00&#34;:-464.11175537109375,&#34;m01&#34;:-742.566894531250,&#34;m02&#34;:870.2285156250,&#34;m10&#34;:373.3750,&#34;m11&#34;:-572.1271972656250,&#34;m12&#34;:151.62612915039062},&#34;opacity&#34;:1.0,&#34;blendMode&#34;:&#34;NORMAL&#34;,&#34;visible&#34;:true}"/>
<g clip-path="url(#paint1_diamond_9482_17910_clip_path)" data-figma-skip-parse="true"><g transform="matrix(-0.224028 0.218011 -0.358439 -0.33406 264.887 147.739)"><rect x="0" y="0" width="1006.79" height="483.561" fill="url(#paint1_diamond_9482_17910)" opacity="1" shape-rendering="crispEdges"/><rect x="0" y="0" width="1006.79" height="483.561" transform="scale(1 -1)" fill="url(#paint1_diamond_9482_17910)" opacity="1" shape-rendering="crispEdges"/><rect x="0" y="0" width="1006.79" height="483.561" transform="scale(-1 1)" fill="url(#paint1_diamond_9482_17910)" opacity="1" shape-rendering="crispEdges"/><rect x="0" y="0" width="1006.79" height="483.561" transform="scale(-1)" fill="url(#paint1_diamond_9482_17910)" opacity="1" shape-rendering="crispEdges"/></g></g><path d="M377.142 195.939H324.579L322.629 195.937C313.123 195.921 304.682 195.907 297 199.329C289.318 202.75 283.68 209.035 277.331 216.113L276.028 217.565L258.101 237.483C256.311 239.473 253.202 239.415 251.498 237.35L189.648 162.379C187.217 159.431 184.617 156.277 182.073 153.936C179.111 151.209 174.732 148.143 168.61 147.775C162.488 147.407 157.773 149.928 154.506 152.28C151.7 154.299 148.741 157.12 145.975 159.756L119.334 185.129C111.118 192.954 109.403 194.287 107.61 195.005C105.816 195.722 103.655 195.939 92.3083 195.939H40.8584C58.9012 250.016 113.86 302.942 156.084 337.373C179.282 356.291 190.882 365.75 209 365.75C227.118 365.75 238.718 356.291 261.917 337.374C304.14 302.943 359.099 250.017 377.142 195.939Z" data-figma-gradient-fill="{&#34;type&#34;:&#34;GRADIENT_DIAMOND&#34;,&#34;stops&#34;:[{&#34;color&#34;:{&#34;r&#34;:0.95294117927551270,&#34;g&#34;:0.61568629741668701,&#34;b&#34;:0.58039218187332153,&#34;a&#34;:1.0},&#34;position&#34;:0.0},{&#34;color&#34;:{&#34;r&#34;:0.81568628549575806,&#34;g&#34;:0.15294118225574493,&#34;b&#34;:0.078431375324726105,&#34;a&#34;:1.0},&#34;position&#34;:1.0}],&#34;stopsVar&#34;:[{&#34;color&#34;:{&#34;r&#34;:0.95294117927551270,&#34;g&#34;:0.61568629741668701,&#34;b&#34;:0.58039218187332153,&#34;a&#34;:1.0},&#34;position&#34;:0.0},{&#34;color&#34;:{&#34;r&#34;:0.81568628549575806,&#34;g&#34;:0.15294118225574493,&#34;b&#34;:0.078431375324726105,&#34;a&#34;:1.0},&#34;position&#34;:1.0}],&#34;transform&#34;:{&#34;m00&#34;:-448.05648803710938,&#34;m01&#34;:-716.878906250,&#34;m02&#34;:847.35437011718750,&#34;m10&#34;:436.02133178710938,&#34;m11&#34;:-668.12097167968750,&#34;m12&#34;:263.78909301757812},&#34;opacity&#34;:1.0,&#34;blendMode&#34;:&#34;NORMAL&#34;,&#34;visible&#34;:true}"/>
<defs>
<clipPath id="paint0_diamond_9482_17910_clip_path"><path opacity="0.5" d="M40.8584 195.939C37.0031 184.384 34.8333 172.777 34.8333 161.286C34.8333 58.3371 130.628 11.5409 209 95.7702C287.372 11.5409 383.167 58.3338 383.167 161.285C383.167 172.776 380.997 184.384 377.142 195.939H324.579L322.629 195.937C313.123 195.921 304.682 195.907 297 199.329C289.318 202.75 283.68 209.035 277.331 216.113L276.028 217.565L258.101 237.483C256.311 239.473 253.202 239.415 251.498 237.35L189.648 162.379C187.217 159.431 184.617 156.276 182.073 153.936C179.111 151.209 174.732 148.143 168.61 147.775C162.488 147.407 157.773 149.928 154.506 152.28C151.7 154.299 148.741 157.12 145.975 159.756L119.334 185.129C111.117 192.954 109.403 194.287 107.61 195.005C105.816 195.722 103.655 195.939 92.3083 195.939H40.8584Z"/></clipPath><clipPath id="paint1_diamond_9482_17910_clip_path"><path d="M377.142 195.939H324.579L322.629 195.937C313.123 195.921 304.682 195.907 297 199.329C289.318 202.75 283.68 209.035 277.331 216.113L276.028 217.565L258.101 237.483C256.311 239.473 253.202 239.415 251.498 237.35L189.648 162.379C187.217 159.431 184.617 156.277 182.073 153.936C179.111 151.209 174.732 148.143 168.61 147.775C162.488 147.407 157.773 149.928 154.506 152.28C151.7 154.299 148.741 157.12 145.975 159.756L119.334 185.129C111.118 192.954 109.403 194.287 107.61 195.005C105.816 195.722 103.655 195.939 92.3083 195.939H40.8584C58.9012 250.016 113.86 302.942 156.084 337.373C179.282 356.291 190.882 365.75 209 365.75C227.118 365.75 238.718 356.291 261.917 337.374C304.14 302.943 359.099 250.017 377.142 195.939Z"/></clipPath><linearGradient id="paint0_diamond_9482_17910" x1="0" y1="0" x2="500" y2="500" gradientUnits="userSpaceOnUse">
<stop stop-color="#F39D94"/>
<stop offset="1" stop-color="#D02714"/>
</linearGradient>
<linearGradient id="paint1_diamond_9482_17910" x1="0" y1="0" x2="500" y2="500" gradientUnits="userSpaceOnUse">
<stop stop-color="#F39D94"/>
<stop offset="1" stop-color="#D02714"/>
</linearGradient>
</defs>
</svg>
