<svg width="198" height="198" viewBox="0 0 198 198" fill="none" xmlns="http://www.w3.org/2000/svg">
<g clip-path="url(#paint0_diamond_9482_17898_clip_path)" data-figma-skip-parse="true"><g transform="matrix(-0.0384724 0.05775 -0.0615549 -0.088491 108.597 33)"><rect x="0" y="0" width="1032.34" height="499.966" fill="url(#paint0_diamond_9482_17898)" opacity="1" shape-rendering="crispEdges"/><rect x="0" y="0" width="1032.34" height="499.966" transform="scale(1 -1)" fill="url(#paint0_diamond_9482_17898)" opacity="1" shape-rendering="crispEdges"/><rect x="0" y="0" width="1032.34" height="499.966" transform="scale(-1 1)" fill="url(#paint0_diamond_9482_17898)" opacity="1" shape-rendering="crispEdges"/><rect x="0" y="0" width="1032.34" height="499.966" transform="scale(-1)" fill="url(#paint0_diamond_9482_17898)" opacity="1" shape-rendering="crispEdges"/></g></g><path d="M127.875 61.875C127.875 77.8222 114.947 90.75 99 90.75C83.0528 90.75 70.125 77.8222 70.125 61.875C70.125 45.9278 83.0528 33 99 33C114.947 33 127.875 45.9278 127.875 61.875Z" data-figma-gradient-fill="{&#34;type&#34;:&#34;GRADIENT_DIAMOND&#34;,&#34;stops&#34;:[{&#34;color&#34;:{&#34;r&#34;:0.22745098173618317,&#34;g&#34;:0.83137255907058716,&#34;b&#34;:0.58039218187332153,&#34;a&#34;:1.0},&#34;position&#34;:0.0},{&#34;color&#34;:{&#34;r&#34;:0.14901961386203766,&#34;g&#34;:0.66274511814117432,&#34;b&#34;:0.61176472902297974,&#34;a&#34;:1.0},&#34;position&#34;:1.0}],&#34;stopsVar&#34;:[{&#34;color&#34;:{&#34;r&#34;:0.22745098173618317,&#34;g&#34;:0.83137255907058716,&#34;b&#34;:0.58039218187332153,&#34;a&#34;:1.0},&#34;position&#34;:0.0},{&#34;color&#34;:{&#34;r&#34;:0.14901961386203766,&#34;g&#34;:0.66274511814117432,&#34;b&#34;:0.61176472902297974,&#34;a&#34;:1.0},&#34;position&#34;:1.0}],&#34;transform&#34;:{&#34;m00&#34;:-76.944839477539062,&#34;m01&#34;:-123.10977172851562,&#34;m02&#34;:208.62472534179688,&#34;m10&#34;:115.49997711181641,&#34;m11&#34;:-176.98207092285156,&#34;m12&#34;:63.741050720214844},&#34;opacity&#34;:1.0,&#34;blendMode&#34;:&#34;NORMAL&#34;,&#34;visible&#34;:true}"/>
<g clip-path="url(#paint1_diamond_9482_17898_clip_path)" data-figma-skip-parse="true"><g transform="matrix(-0.0274803 0.04125 -0.0439678 -0.0632079 147.105 41.25)"><rect x="0" y="0" width="1045.28" height="508.262" fill="url(#paint1_diamond_9482_17898)" opacity="1" shape-rendering="crispEdges"/><rect x="0" y="0" width="1045.28" height="508.262" transform="scale(1 -1)" fill="url(#paint1_diamond_9482_17898)" opacity="1" shape-rendering="crispEdges"/><rect x="0" y="0" width="1045.28" height="508.262" transform="scale(-1 1)" fill="url(#paint1_diamond_9482_17898)" opacity="1" shape-rendering="crispEdges"/><rect x="0" y="0" width="1045.28" height="508.262" transform="scale(-1)" fill="url(#paint1_diamond_9482_17898)" opacity="1" shape-rendering="crispEdges"/></g></g><path opacity="0.5" d="M160.875 61.875C160.875 73.2659 151.641 82.5 140.25 82.5C128.859 82.5 119.625 73.2659 119.625 61.875C119.625 50.4841 128.859 41.25 140.25 41.25C151.641 41.25 160.875 50.4841 160.875 61.875Z" data-figma-gradient-fill="{&#34;type&#34;:&#34;GRADIENT_DIAMOND&#34;,&#34;stops&#34;:[{&#34;color&#34;:{&#34;r&#34;:0.22745098173618317,&#34;g&#34;:0.83137255907058716,&#34;b&#34;:0.58039218187332153,&#34;a&#34;:1.0},&#34;position&#34;:0.0},{&#34;color&#34;:{&#34;r&#34;:0.14901961386203766,&#34;g&#34;:0.66274511814117432,&#34;b&#34;:0.61176472902297974,&#34;a&#34;:1.0},&#34;position&#34;:1.0}],&#34;stopsVar&#34;:[{&#34;color&#34;:{&#34;r&#34;:0.22745098173618317,&#34;g&#34;:0.83137255907058716,&#34;b&#34;:0.58039218187332153,&#34;a&#34;:1.0},&#34;position&#34;:0.0},{&#34;color&#34;:{&#34;r&#34;:0.14901961386203766,&#34;g&#34;:0.66274511814117432,&#34;b&#34;:0.61176472902297974,&#34;a&#34;:1.0},&#34;position&#34;:1.0}],&#34;transform&#34;:{&#34;m00&#34;:-54.960601806640625,&#34;m01&#34;:-87.9355468750,&#34;m02&#34;:218.55337524414062,&#34;m10&#34;:82.499984741210938,&#34;m11&#34;:-126.41576385498047,&#34;m12&#34;:63.207893371582031},&#34;opacity&#34;:1.0,&#34;blendMode&#34;:&#34;NORMAL&#34;,&#34;visible&#34;:true}"/>
<g clip-path="url(#paint2_diamond_9482_17898_clip_path)" data-figma-skip-parse="true"><g transform="matrix(0.0274803 0.04125 0.0439678 -0.0632079 50.8947 41.25)"><rect x="0" y="0" width="1045.28" height="508.262" fill="url(#paint2_diamond_9482_17898)" opacity="1" shape-rendering="crispEdges"/><rect x="0" y="0" width="1045.28" height="508.262" transform="scale(1 -1)" fill="url(#paint2_diamond_9482_17898)" opacity="1" shape-rendering="crispEdges"/><rect x="0" y="0" width="1045.28" height="508.262" transform="scale(-1 1)" fill="url(#paint2_diamond_9482_17898)" opacity="1" shape-rendering="crispEdges"/><rect x="0" y="0" width="1045.28" height="508.262" transform="scale(-1)" fill="url(#paint2_diamond_9482_17898)" opacity="1" shape-rendering="crispEdges"/></g></g><path opacity="0.5" d="M37.125 61.875C37.125 73.2659 46.3591 82.5 57.75 82.5C69.1409 82.5 78.375 73.2659 78.375 61.875C78.375 50.4841 69.1409 41.25 57.75 41.25C46.3591 41.25 37.125 50.4841 37.125 61.875Z" data-figma-gradient-fill="{&#34;type&#34;:&#34;GRADIENT_DIAMOND&#34;,&#34;stops&#34;:[{&#34;color&#34;:{&#34;r&#34;:0.22745098173618317,&#34;g&#34;:0.83137255907058716,&#34;b&#34;:0.58039218187332153,&#34;a&#34;:1.0},&#34;position&#34;:0.0},{&#34;color&#34;:{&#34;r&#34;:0.14901961386203766,&#34;g&#34;:0.66274511814117432,&#34;b&#34;:0.61176472902297974,&#34;a&#34;:1.0},&#34;position&#34;:1.0}],&#34;stopsVar&#34;:[{&#34;color&#34;:{&#34;r&#34;:0.22745098173618317,&#34;g&#34;:0.83137255907058716,&#34;b&#34;:0.58039218187332153,&#34;a&#34;:1.0},&#34;position&#34;:0.0},{&#34;color&#34;:{&#34;r&#34;:0.14901961386203766,&#34;g&#34;:0.66274511814117432,&#34;b&#34;:0.61176472902297974,&#34;a&#34;:1.0},&#34;position&#34;:1.0}],&#34;transform&#34;:{&#34;m00&#34;:54.960601806640625,&#34;m01&#34;:87.9355468750,&#34;m02&#34;:-20.553377151489258,&#34;m10&#34;:82.499984741210938,&#34;m11&#34;:-126.41576385498047,&#34;m12&#34;:63.207893371582031},&#34;opacity&#34;:1.0,&#34;blendMode&#34;:&#34;NORMAL&#34;,&#34;visible&#34;:true}"/>
<g clip-path="url(#paint3_diamond_9482_17898_clip_path)" data-figma-skip-parse="true"><g transform="matrix(-0.0659527 0.05775 -0.105523 -0.088491 115.453 107.25)"><rect x="0" y="0" width="1024.39" height="494.78" fill="url(#paint3_diamond_9482_17898)" opacity="1" shape-rendering="crispEdges"/><rect x="0" y="0" width="1024.39" height="494.78" transform="scale(1 -1)" fill="url(#paint3_diamond_9482_17898)" opacity="1" shape-rendering="crispEdges"/><rect x="0" y="0" width="1024.39" height="494.78" transform="scale(-1 1)" fill="url(#paint3_diamond_9482_17898)" opacity="1" shape-rendering="crispEdges"/><rect x="0" y="0" width="1024.39" height="494.78" transform="scale(-1)" fill="url(#paint3_diamond_9482_17898)" opacity="1" shape-rendering="crispEdges"/></g></g><path d="M148.5 136.125C148.5 152.072 126.338 165 99 165C71.6619 165 49.5 152.072 49.5 136.125C49.5 120.178 71.6619 107.25 99 107.25C126.338 107.25 148.5 120.178 148.5 136.125Z" data-figma-gradient-fill="{&#34;type&#34;:&#34;GRADIENT_DIAMOND&#34;,&#34;stops&#34;:[{&#34;color&#34;:{&#34;r&#34;:0.22745098173618317,&#34;g&#34;:0.83137255907058716,&#34;b&#34;:0.58039218187332153,&#34;a&#34;:1.0},&#34;position&#34;:0.0},{&#34;color&#34;:{&#34;r&#34;:0.14901961386203766,&#34;g&#34;:0.66274511814117432,&#34;b&#34;:0.61176472902297974,&#34;a&#34;:1.0},&#34;position&#34;:1.0}],&#34;stopsVar&#34;:[{&#34;color&#34;:{&#34;r&#34;:0.22745098173618317,&#34;g&#34;:0.83137255907058716,&#34;b&#34;:0.58039218187332153,&#34;a&#34;:1.0},&#34;position&#34;:0.0},{&#34;color&#34;:{&#34;r&#34;:0.14901961386203766,&#34;g&#34;:0.66274511814117432,&#34;b&#34;:0.61176472902297974,&#34;a&#34;:1.0},&#34;position&#34;:1.0}],&#34;transform&#34;:{&#34;m00&#34;:-131.90544128417969,&#34;m01&#34;:-211.04531860351562,&#34;m02&#34;:286.92810058593750,&#34;m10&#34;:115.49997711181641,&#34;m11&#34;:-176.98207092285156,&#34;m12&#34;:137.99105834960938},&#34;opacity&#34;:1.0,&#34;blendMode&#34;:&#34;NORMAL&#34;,&#34;visible&#34;:true}"/>
<g clip-path="url(#paint4_diamond_9482_17898_clip_path)" data-figma-skip-parse="true"><g transform="matrix(-0.0439685 0.04125 -0.0703484 -0.0632079 159.468 115.5)"><rect x="0" y="0" width="1035.26" height="501.727" fill="url(#paint4_diamond_9482_17898)" opacity="1" shape-rendering="crispEdges"/><rect x="0" y="0" width="1035.26" height="501.727" transform="scale(1 -1)" fill="url(#paint4_diamond_9482_17898)" opacity="1" shape-rendering="crispEdges"/><rect x="0" y="0" width="1035.26" height="501.727" transform="scale(-1 1)" fill="url(#paint4_diamond_9482_17898)" opacity="1" shape-rendering="crispEdges"/><rect x="0" y="0" width="1035.26" height="501.727" transform="scale(-1)" fill="url(#paint4_diamond_9482_17898)" opacity="1" shape-rendering="crispEdges"/></g></g><path opacity="0.5" d="M181.5 136.125C181.5 147.516 166.725 156.75 148.5 156.75C130.275 156.75 115.5 147.516 115.5 136.125C115.5 124.734 130.275 115.5 148.5 115.5C166.725 115.5 181.5 124.734 181.5 136.125Z" data-figma-gradient-fill="{&#34;type&#34;:&#34;GRADIENT_DIAMOND&#34;,&#34;stops&#34;:[{&#34;color&#34;:{&#34;r&#34;:0.22745098173618317,&#34;g&#34;:0.83137255907058716,&#34;b&#34;:0.58039218187332153,&#34;a&#34;:1.0},&#34;position&#34;:0.0},{&#34;color&#34;:{&#34;r&#34;:0.14901961386203766,&#34;g&#34;:0.66274511814117432,&#34;b&#34;:0.61176472902297974,&#34;a&#34;:1.0},&#34;position&#34;:1.0}],&#34;stopsVar&#34;:[{&#34;color&#34;:{&#34;r&#34;:0.22745098173618317,&#34;g&#34;:0.83137255907058716,&#34;b&#34;:0.58039218187332153,&#34;a&#34;:1.0},&#34;position&#34;:0.0},{&#34;color&#34;:{&#34;r&#34;:0.14901961386203766,&#34;g&#34;:0.66274511814117432,&#34;b&#34;:0.61176472902297974,&#34;a&#34;:1.0},&#34;position&#34;:1.0}],&#34;transform&#34;:{&#34;m00&#34;:-87.936965942382812,&#34;m01&#34;:-140.69688415527344,&#34;m02&#34;:273.7854003906250,&#34;m10&#34;:82.499984741210938,&#34;m11&#34;:-126.41576385498047,&#34;m12&#34;:137.45790100097656},&#34;opacity&#34;:1.0,&#34;blendMode&#34;:&#34;NORMAL&#34;,&#34;visible&#34;:true}"/>
<g clip-path="url(#paint5_diamond_9482_17898_clip_path)" data-figma-skip-parse="true"><g transform="matrix(0.0439685 0.04125 0.0703484 -0.0632079 38.5315 115.5)"><rect x="0" y="0" width="1035.26" height="501.727" fill="url(#paint5_diamond_9482_17898)" opacity="1" shape-rendering="crispEdges"/><rect x="0" y="0" width="1035.26" height="501.727" transform="scale(1 -1)" fill="url(#paint5_diamond_9482_17898)" opacity="1" shape-rendering="crispEdges"/><rect x="0" y="0" width="1035.26" height="501.727" transform="scale(-1 1)" fill="url(#paint5_diamond_9482_17898)" opacity="1" shape-rendering="crispEdges"/><rect x="0" y="0" width="1035.26" height="501.727" transform="scale(-1)" fill="url(#paint5_diamond_9482_17898)" opacity="1" shape-rendering="crispEdges"/></g></g><path opacity="0.5" d="M16.5 136.125C16.5 147.516 31.2746 156.75 49.5 156.75C67.7254 156.75 82.5 147.516 82.5 136.125C82.5 124.734 67.7254 115.5 49.5 115.5C31.2746 115.5 16.5 124.734 16.5 136.125Z" data-figma-gradient-fill="{&#34;type&#34;:&#34;GRADIENT_DIAMOND&#34;,&#34;stops&#34;:[{&#34;color&#34;:{&#34;r&#34;:0.22745098173618317,&#34;g&#34;:0.83137255907058716,&#34;b&#34;:0.58039218187332153,&#34;a&#34;:1.0},&#34;position&#34;:0.0},{&#34;color&#34;:{&#34;r&#34;:0.14901961386203766,&#34;g&#34;:0.66274511814117432,&#34;b&#34;:0.61176472902297974,&#34;a&#34;:1.0},&#34;position&#34;:1.0}],&#34;stopsVar&#34;:[{&#34;color&#34;:{&#34;r&#34;:0.22745098173618317,&#34;g&#34;:0.83137255907058716,&#34;b&#34;:0.58039218187332153,&#34;a&#34;:1.0},&#34;position&#34;:0.0},{&#34;color&#34;:{&#34;r&#34;:0.14901961386203766,&#34;g&#34;:0.66274511814117432,&#34;b&#34;:0.61176472902297974,&#34;a&#34;:1.0},&#34;position&#34;:1.0}],&#34;transform&#34;:{&#34;m00&#34;:87.936965942382812,&#34;m01&#34;:140.69688415527344,&#34;m02&#34;:-75.7854003906250,&#34;m10&#34;:82.499984741210938,&#34;m11&#34;:-126.41576385498047,&#34;m12&#34;:137.45790100097656},&#34;opacity&#34;:1.0,&#34;blendMode&#34;:&#34;NORMAL&#34;,&#34;visible&#34;:true}"/>
<defs>
<clipPath id="paint0_diamond_9482_17898_clip_path"><path d="M127.875 61.875C127.875 77.8222 114.947 90.75 99 90.75C83.0528 90.75 70.125 77.8222 70.125 61.875C70.125 45.9278 83.0528 33 99 33C114.947 33 127.875 45.9278 127.875 61.875Z"/></clipPath><clipPath id="paint1_diamond_9482_17898_clip_path"><path opacity="0.5" d="M160.875 61.875C160.875 73.2659 151.641 82.5 140.25 82.5C128.859 82.5 119.625 73.2659 119.625 61.875C119.625 50.4841 128.859 41.25 140.25 41.25C151.641 41.25 160.875 50.4841 160.875 61.875Z"/></clipPath><clipPath id="paint2_diamond_9482_17898_clip_path"><path opacity="0.5" d="M37.125 61.875C37.125 73.2659 46.3591 82.5 57.75 82.5C69.1409 82.5 78.375 73.2659 78.375 61.875C78.375 50.4841 69.1409 41.25 57.75 41.25C46.3591 41.25 37.125 50.4841 37.125 61.875Z"/></clipPath><clipPath id="paint3_diamond_9482_17898_clip_path"><path d="M148.5 136.125C148.5 152.072 126.338 165 99 165C71.6619 165 49.5 152.072 49.5 136.125C49.5 120.178 71.6619 107.25 99 107.25C126.338 107.25 148.5 120.178 148.5 136.125Z"/></clipPath><clipPath id="paint4_diamond_9482_17898_clip_path"><path opacity="0.5" d="M181.5 136.125C181.5 147.516 166.725 156.75 148.5 156.75C130.275 156.75 115.5 147.516 115.5 136.125C115.5 124.734 130.275 115.5 148.5 115.5C166.725 115.5 181.5 124.734 181.5 136.125Z"/></clipPath><clipPath id="paint5_diamond_9482_17898_clip_path"><path opacity="0.5" d="M16.5 136.125C16.5 147.516 31.2746 156.75 49.5 156.75C67.7254 156.75 82.5 147.516 82.5 136.125C82.5 124.734 67.7254 115.5 49.5 115.5C31.2746 115.5 16.5 124.734 16.5 136.125Z"/></clipPath><linearGradient id="paint0_diamond_9482_17898" x1="0" y1="0" x2="500" y2="500" gradientUnits="userSpaceOnUse">
<stop stop-color="#3AD494"/>
<stop offset="1" stop-color="#26A99C"/>
</linearGradient>
<linearGradient id="paint1_diamond_9482_17898" x1="0" y1="0" x2="500" y2="500" gradientUnits="userSpaceOnUse">
<stop stop-color="#3AD494"/>
<stop offset="1" stop-color="#26A99C"/>
</linearGradient>
<linearGradient id="paint2_diamond_9482_17898" x1="0" y1="0" x2="500" y2="500" gradientUnits="userSpaceOnUse">
<stop stop-color="#3AD494"/>
<stop offset="1" stop-color="#26A99C"/>
</linearGradient>
<linearGradient id="paint3_diamond_9482_17898" x1="0" y1="0" x2="500" y2="500" gradientUnits="userSpaceOnUse">
<stop stop-color="#3AD494"/>
<stop offset="1" stop-color="#26A99C"/>
</linearGradient>
<linearGradient id="paint4_diamond_9482_17898" x1="0" y1="0" x2="500" y2="500" gradientUnits="userSpaceOnUse">
<stop stop-color="#3AD494"/>
<stop offset="1" stop-color="#26A99C"/>
</linearGradient>
<linearGradient id="paint5_diamond_9482_17898" x1="0" y1="0" x2="500" y2="500" gradientUnits="userSpaceOnUse">
<stop stop-color="#3AD494"/>
<stop offset="1" stop-color="#26A99C"/>
</linearGradient>
</defs>
</svg>
