<svg width="98" height="98" viewBox="0 0 98 98" fill="none" xmlns="http://www.w3.org/2000/svg">
<g clip-path="url(#clip0_9420_51285)">
<g clip-path="url(#paint0_diamond_9420_51285_clip_path)" data-figma-skip-parse="true"><g transform="matrix(-0.0101138 0.00773846 -0.0201194 -0.00231422 34.7864 42.0479)"><rect x="0" y="0" width="1220.08" height="618.5" fill="url(#paint0_diamond_9420_51285)" opacity="1" shape-rendering="crispEdges"/><rect x="0" y="0" width="1220.08" height="618.5" transform="scale(1 -1)" fill="url(#paint0_diamond_9420_51285)" opacity="1" shape-rendering="crispEdges"/><rect x="0" y="0" width="1220.08" height="618.5" transform="scale(-1 1)" fill="url(#paint0_diamond_9420_51285)" opacity="1" shape-rendering="crispEdges"/><rect x="0" y="0" width="1220.08" height="618.5" transform="scale(-1)" fill="url(#paint0_diamond_9420_51285)" opacity="1" shape-rendering="crispEdges"/></g></g><path d="M24.0441 47.4405C23.6969 46.145 24.4576 44.8155 25.7431 44.4711L38.1566 41.1449C39.442 40.8004 40.7655 41.5715 41.1127 42.867C41.4598 44.1626 40.6991 45.4921 39.4137 45.8365L27.0002 49.1627C25.7147 49.5071 24.3912 48.7361 24.0441 47.4405Z" data-figma-gradient-fill="{&#34;type&#34;:&#34;GRADIENT_DIAMOND&#34;,&#34;stops&#34;:[{&#34;color&#34;:{&#34;r&#34;:0.22745098173618317,&#34;g&#34;:0.83137255907058716,&#34;b&#34;:0.58039218187332153,&#34;a&#34;:1.0},&#34;position&#34;:0.0},{&#34;color&#34;:{&#34;r&#34;:0.14901961386203766,&#34;g&#34;:0.66274511814117432,&#34;b&#34;:0.61176472902297974,&#34;a&#34;:1.0},&#34;position&#34;:1.0}],&#34;stopsVar&#34;:[{&#34;color&#34;:{&#34;r&#34;:0.22745098173618317,&#34;g&#34;:0.83137255907058716,&#34;b&#34;:0.58039218187332153,&#34;a&#34;:1.0},&#34;position&#34;:0.0},{&#34;color&#34;:{&#34;r&#34;:0.14901961386203766,&#34;g&#34;:0.66274511814117432,&#34;b&#34;:0.61176472902297974,&#34;a&#34;:1.0},&#34;position&#34;:1.0}],&#34;transform&#34;:{&#34;m00&#34;:-20.227548599243164,&#34;m01&#34;:-40.238880157470703,&#34;m02&#34;:65.019638061523438,&#34;m10&#34;:15.476918220520020,&#34;m11&#34;:-4.6284351348876953,&#34;m12&#34;:36.623664855957031},&#34;opacity&#34;:1.0,&#34;blendMode&#34;:&#34;NORMAL&#34;,&#34;visible&#34;:true}"/>
<g clip-path="url(#paint1_diamond_9420_51285_clip_path)" data-figma-skip-parse="true"><g transform="matrix(-0.0124028 0.0309307 -0.0414628 -0.0311932 73.0083 35.6515)"><rect x="0" y="0" width="1065.45" height="521.146" fill="url(#paint1_diamond_9420_51285)" opacity="1" shape-rendering="crispEdges"/><rect x="0" y="0" width="1065.45" height="521.146" transform="scale(1 -1)" fill="url(#paint1_diamond_9420_51285)" opacity="1" shape-rendering="crispEdges"/><rect x="0" y="0" width="1065.45" height="521.146" transform="scale(-1 1)" fill="url(#paint1_diamond_9420_51285)" opacity="1" shape-rendering="crispEdges"/><rect x="0" y="0" width="1065.45" height="521.146" transform="scale(-1)" fill="url(#paint1_diamond_9420_51285)" opacity="1" shape-rendering="crispEdges"/></g></g><path fill-rule="evenodd" clip-rule="evenodd" d="M76.8518 34.6347C76.648 34.6761 76.4299 34.7347 76.2036 34.7954L76.1472 34.8105L67.2746 37.1879C59.9613 39.1475 55.2014 46.4139 57.1545 53.7032C59.1077 60.9925 66.8631 64.9055 74.1765 62.9459L83.049 60.5685L83.1054 60.5534C83.3318 60.4928 83.55 60.4344 83.7471 60.3684C86.6689 59.3903 88.6912 56.4292 88.0673 53.2172C88.0264 53.0066 87.9666 52.7838 87.9111 52.5773L87.8961 52.5213L84.3685 39.3561L84.3535 39.3C84.2982 39.0934 84.2387 38.8706 84.1688 38.6677C83.1031 35.5741 79.8712 34.0209 76.8518 34.6347ZM70.8591 53.7121C72.7419 53.2076 73.8562 51.2609 73.348 49.3642C72.8397 47.4674 70.9014 46.3388 69.0186 46.8433C67.1358 47.3478 66.0214 49.2944 66.5297 51.1911C67.0379 53.0879 68.9762 54.2166 70.8591 53.7121Z" data-figma-gradient-fill="{&#34;type&#34;:&#34;GRADIENT_DIAMOND&#34;,&#34;stops&#34;:[{&#34;color&#34;:{&#34;r&#34;:0.22745098173618317,&#34;g&#34;:0.83137255907058716,&#34;b&#34;:0.58039218187332153,&#34;a&#34;:1.0},&#34;position&#34;:0.0},{&#34;color&#34;:{&#34;r&#34;:0.14901961386203766,&#34;g&#34;:0.66274511814117432,&#34;b&#34;:0.61176472902297974,&#34;a&#34;:1.0},&#34;position&#34;:1.0}],&#34;stopsVar&#34;:[{&#34;color&#34;:{&#34;r&#34;:0.22745098173618317,&#34;g&#34;:0.83137255907058716,&#34;b&#34;:0.58039218187332153,&#34;a&#34;:1.0},&#34;position&#34;:0.0},{&#34;color&#34;:{&#34;r&#34;:0.14901961386203766,&#34;g&#34;:0.66274511814117432,&#34;b&#34;:0.61176472902297974,&#34;a&#34;:1.0},&#34;position&#34;:1.0}],&#34;transform&#34;:{&#34;m00&#34;:-24.805677413940430,&#34;m01&#34;:-82.925529479980469,&#34;m02&#34;:126.87389373779297,&#34;m10&#34;:61.861377716064453,&#34;m11&#34;:-62.386379241943359,&#34;m12&#34;:35.914047241210938},&#34;opacity&#34;:1.0,&#34;blendMode&#34;:&#34;NORMAL&#34;,&#34;visible&#34;:true}"/>
<g clip-path="url(#paint2_diamond_9420_51285_clip_path)" data-figma-skip-parse="true"><g transform="matrix(-0.0259556 0.0673459 -0.0888188 -0.0687391 51.8063 24.0779)"><rect x="0" y="0" width="1030.4" height="498.704" fill="url(#paint2_diamond_9420_51285)" opacity="1" shape-rendering="crispEdges"/><rect x="0" y="0" width="1030.4" height="498.704" transform="scale(1 -1)" fill="url(#paint2_diamond_9420_51285)" opacity="1" shape-rendering="crispEdges"/><rect x="0" y="0" width="1030.4" height="498.704" transform="scale(-1 1)" fill="url(#paint2_diamond_9420_51285)" opacity="1" shape-rendering="crispEdges"/><rect x="0" y="0" width="1030.4" height="498.704" transform="scale(-1)" fill="url(#paint2_diamond_9420_51285)" opacity="1" shape-rendering="crispEdges"/></g></g><path opacity="0.5" d="M76.692 34.6697C75.6735 30.8684 74.4427 26.8278 71.2295 24.5557C70.9193 24.3364 70.5961 24.1293 70.2589 23.9346C67.2037 22.1707 63.8618 21.9201 59.9509 22.424C56.1508 22.9137 51.4641 24.1696 45.547 25.7551L38.7441 27.5779C32.827 29.1633 28.1402 30.4191 24.6043 31.8951C20.9654 33.4141 18.1966 35.3021 16.4327 38.3573C14.6688 41.4125 14.4181 44.7544 14.9221 48.6653C15.4117 52.4654 16.6676 57.1522 18.2531 63.0693L18.3505 63.4326C19.9359 69.3497 21.1917 74.0366 22.6677 77.5724C24.1867 81.2113 26.0747 83.9802 29.1299 85.7441C32.1851 87.508 35.527 87.7586 39.4379 87.2547C43.238 86.765 47.9247 85.5091 53.8418 83.9236L60.6447 82.1008C66.5618 80.5154 71.2487 79.2595 74.7845 77.7836C78.4234 76.2646 81.1923 74.3765 82.9562 71.3214C83.4382 70.4864 83.8077 69.6287 84.0797 68.742C84.9094 66.0369 84.3236 63.1509 83.5913 60.4179C83.4374 60.4645 83.2737 60.5083 83.1056 60.5532L74.1765 62.9458C66.8631 64.9054 59.1077 60.9924 57.1545 53.7031C55.2014 46.4138 59.9613 39.1474 67.2746 37.1878L76.2036 34.7953C76.3717 34.7502 76.5355 34.7062 76.692 34.6697Z" data-figma-gradient-fill="{&#34;type&#34;:&#34;GRADIENT_DIAMOND&#34;,&#34;stops&#34;:[{&#34;color&#34;:{&#34;r&#34;:0.22745098173618317,&#34;g&#34;:0.83137255907058716,&#34;b&#34;:0.58039218187332153,&#34;a&#34;:1.0},&#34;position&#34;:0.0},{&#34;color&#34;:{&#34;r&#34;:0.14901961386203766,&#34;g&#34;:0.66274511814117432,&#34;b&#34;:0.61176472902297974,&#34;a&#34;:1.0},&#34;position&#34;:1.0}],&#34;stopsVar&#34;:[{&#34;color&#34;:{&#34;r&#34;:0.22745098173618317,&#34;g&#34;:0.83137255907058716,&#34;b&#34;:0.58039218187332153,&#34;a&#34;:1.0},&#34;position&#34;:0.0},{&#34;color&#34;:{&#34;r&#34;:0.14901961386203766,&#34;g&#34;:0.66274511814117432,&#34;b&#34;:0.61176472902297974,&#34;a&#34;:1.0},&#34;position&#34;:1.0}],&#34;transform&#34;:{&#34;m00&#34;:-51.911144256591797,&#34;m01&#34;:-177.63761901855469,&#34;m02&#34;:166.58065795898438,&#34;m10&#34;:134.69174194335938,&#34;m11&#34;:-137.47822570800781,&#34;m12&#34;:25.471158981323242},&#34;opacity&#34;:1.0,&#34;blendMode&#34;:&#34;NORMAL&#34;,&#34;visible&#34;:true}"/>
<g clip-path="url(#paint3_diamond_9420_51285_clip_path)" data-figma-skip-parse="true"><g transform="matrix(-0.0221364 0.0172068 -0.0442471 -0.0054215 46.8581 15.0516)"><rect x="0" y="0" width="1098.75" height="541.732" fill="url(#paint3_diamond_9420_51285)" opacity="1" shape-rendering="crispEdges"/><rect x="0" y="0" width="1098.75" height="541.732" transform="scale(1 -1)" fill="url(#paint3_diamond_9420_51285)" opacity="1" shape-rendering="crispEdges"/><rect x="0" y="0" width="1098.75" height="541.732" transform="scale(-1 1)" fill="url(#paint3_diamond_9420_51285)" opacity="1" shape-rendering="crispEdges"/><rect x="0" y="0" width="1098.75" height="541.732" transform="scale(-1)" fill="url(#paint3_diamond_9420_51285)" opacity="1" shape-rendering="crispEdges"/></g></g><path d="M34.7433 20.272L29.2026 26.6584L24.6225 31.8881C28.1562 30.4154 32.8373 29.1611 38.7444 27.5784L45.5473 25.7555C51.4644 24.17 56.1511 22.9141 59.9512 22.4245C60.7156 22.326 61.4583 22.2563 62.1813 22.2211L54.967 19.7806L46.9334 17.0057C42.6416 15.5232 37.7189 16.8423 34.7433 20.272Z" data-figma-gradient-fill="{&#34;type&#34;:&#34;GRADIENT_DIAMOND&#34;,&#34;stops&#34;:[{&#34;color&#34;:{&#34;r&#34;:0.22745098173618317,&#34;g&#34;:0.83137255907058716,&#34;b&#34;:0.58039218187332153,&#34;a&#34;:1.0},&#34;position&#34;:0.0},{&#34;color&#34;:{&#34;r&#34;:0.14901961386203766,&#34;g&#34;:0.66274511814117432,&#34;b&#34;:0.61176472902297974,&#34;a&#34;:1.0},&#34;position&#34;:1.0}],&#34;stopsVar&#34;:[{&#34;color&#34;:{&#34;r&#34;:0.22745098173618317,&#34;g&#34;:0.83137255907058716,&#34;b&#34;:0.58039218187332153,&#34;a&#34;:1.0},&#34;position&#34;:0.0},{&#34;color&#34;:{&#34;r&#34;:0.14901961386203766,&#34;g&#34;:0.66274511814117432,&#34;b&#34;:0.61176472902297974,&#34;a&#34;:1.0},&#34;position&#34;:1.0}],&#34;transform&#34;:{&#34;m00&#34;:-44.272724151611328,&#34;m01&#34;:-88.494148254394531,&#34;m02&#34;:113.24148559570312,&#34;m10&#34;:34.413677215576172,&#34;m11&#34;:-10.842996597290039,&#34;m12&#34;:3.2662110328674316},&#34;opacity&#34;:1.0,&#34;blendMode&#34;:&#34;NORMAL&#34;,&#34;visible&#34;:true}"/>
</g>
<defs>
<clipPath id="paint0_diamond_9420_51285_clip_path"><path d="M24.0441 47.4405C23.6969 46.145 24.4576 44.8155 25.7431 44.4711L38.1566 41.1449C39.442 40.8004 40.7655 41.5715 41.1127 42.867C41.4598 44.1626 40.6991 45.4921 39.4137 45.8365L27.0002 49.1627C25.7147 49.5071 24.3912 48.7361 24.0441 47.4405Z"/></clipPath><clipPath id="paint1_diamond_9420_51285_clip_path"><path fill-rule="evenodd" clip-rule="evenodd" d="M76.8518 34.6347C76.648 34.6761 76.4299 34.7347 76.2036 34.7954L76.1472 34.8105L67.2746 37.1879C59.9613 39.1475 55.2014 46.4139 57.1545 53.7032C59.1077 60.9925 66.8631 64.9055 74.1765 62.9459L83.049 60.5685L83.1054 60.5534C83.3318 60.4928 83.55 60.4344 83.7471 60.3684C86.6689 59.3903 88.6912 56.4292 88.0673 53.2172C88.0264 53.0066 87.9666 52.7838 87.9111 52.5773L87.8961 52.5213L84.3685 39.3561L84.3535 39.3C84.2982 39.0934 84.2387 38.8706 84.1688 38.6677C83.1031 35.5741 79.8712 34.0209 76.8518 34.6347ZM70.8591 53.7121C72.7419 53.2076 73.8562 51.2609 73.348 49.3642C72.8397 47.4674 70.9014 46.3388 69.0186 46.8433C67.1358 47.3478 66.0214 49.2944 66.5297 51.1911C67.0379 53.0879 68.9762 54.2166 70.8591 53.7121Z"/></clipPath><clipPath id="paint2_diamond_9420_51285_clip_path"><path opacity="0.5" d="M76.692 34.6697C75.6735 30.8684 74.4427 26.8278 71.2295 24.5557C70.9193 24.3364 70.5961 24.1293 70.2589 23.9346C67.2037 22.1707 63.8618 21.9201 59.9509 22.424C56.1508 22.9137 51.4641 24.1696 45.547 25.7551L38.7441 27.5779C32.827 29.1633 28.1402 30.4191 24.6043 31.8951C20.9654 33.4141 18.1966 35.3021 16.4327 38.3573C14.6688 41.4125 14.4181 44.7544 14.9221 48.6653C15.4117 52.4654 16.6676 57.1522 18.2531 63.0693L18.3505 63.4326C19.9359 69.3497 21.1917 74.0366 22.6677 77.5724C24.1867 81.2113 26.0747 83.9802 29.1299 85.7441C32.1851 87.508 35.527 87.7586 39.4379 87.2547C43.238 86.765 47.9247 85.5091 53.8418 83.9236L60.6447 82.1008C66.5618 80.5154 71.2487 79.2595 74.7845 77.7836C78.4234 76.2646 81.1923 74.3765 82.9562 71.3214C83.4382 70.4864 83.8077 69.6287 84.0797 68.742C84.9094 66.0369 84.3236 63.1509 83.5913 60.4179C83.4374 60.4645 83.2737 60.5083 83.1056 60.5532L74.1765 62.9458C66.8631 64.9054 59.1077 60.9924 57.1545 53.7031C55.2014 46.4138 59.9613 39.1474 67.2746 37.1878L76.2036 34.7953C76.3717 34.7502 76.5355 34.7062 76.692 34.6697Z"/></clipPath><clipPath id="paint3_diamond_9420_51285_clip_path"><path d="M34.7433 20.272L29.2026 26.6584L24.6225 31.8881C28.1562 30.4154 32.8373 29.1611 38.7444 27.5784L45.5473 25.7555C51.4644 24.17 56.1511 22.9141 59.9512 22.4245C60.7156 22.326 61.4583 22.2563 62.1813 22.2211L54.967 19.7806L46.9334 17.0057C42.6416 15.5232 37.7189 16.8423 34.7433 20.272Z"/></clipPath><linearGradient id="paint0_diamond_9420_51285" x1="0" y1="0" x2="500" y2="500" gradientUnits="userSpaceOnUse">
<stop stop-color="#3AD494"/>
<stop offset="1" stop-color="#26A99C"/>
</linearGradient>
<linearGradient id="paint1_diamond_9420_51285" x1="0" y1="0" x2="500" y2="500" gradientUnits="userSpaceOnUse">
<stop stop-color="#3AD494"/>
<stop offset="1" stop-color="#26A99C"/>
</linearGradient>
<linearGradient id="paint2_diamond_9420_51285" x1="0" y1="0" x2="500" y2="500" gradientUnits="userSpaceOnUse">
<stop stop-color="#3AD494"/>
<stop offset="1" stop-color="#26A99C"/>
</linearGradient>
<linearGradient id="paint3_diamond_9420_51285" x1="0" y1="0" x2="500" y2="500" gradientUnits="userSpaceOnUse">
<stop stop-color="#3AD494"/>
<stop offset="1" stop-color="#26A99C"/>
</linearGradient>
<clipPath id="clip0_9420_51285">
<rect width="80" height="80" fill="white" transform="translate(0 20.7051) rotate(-15)"/>
</clipPath>
</defs>
</svg>
