<svg width="36" height="39" viewBox="0 0 36 39" fill="none" xmlns="http://www.w3.org/2000/svg">
<g clip-path="url(#paint0_diamond_10646_86264_clip_path)" data-figma-skip-parse="true"><g transform="matrix(-0.0159885 0.03 -0.0255813 -0.0459694 21.9885 3)"><rect x="0" y="0" width="1071.44" height="525.141" fill="url(#paint0_diamond_10646_86264)" opacity="1" shape-rendering="crispEdges"/><rect x="0" y="0" width="1071.44" height="525.141" transform="scale(1 -1)" fill="url(#paint0_diamond_10646_86264)" opacity="1" shape-rendering="crispEdges"/><rect x="0" y="0" width="1071.44" height="525.141" transform="scale(-1 1)" fill="url(#paint0_diamond_10646_86264)" opacity="1" shape-rendering="crispEdges"/><rect x="0" y="0" width="1071.44" height="525.141" transform="scale(-1)" fill="url(#paint0_diamond_10646_86264)" opacity="1" shape-rendering="crispEdges"/></g></g><path fill-rule="evenodd" clip-rule="evenodd" d="M18 3C11.3726 3 6 9.00388 6 15.75C6 22.4433 9.82999 29.7186 15.8056 32.5117C17.1986 33.1628 18.8014 33.1628 20.1944 32.5117C26.17 29.7186 30 22.4433 30 15.75C30 9.00388 24.6274 3 18 3ZM18 18C19.6569 18 21 16.6569 21 15C21 13.3431 19.6569 12 18 12C16.3431 12 15 13.3431 15 15C15 16.6569 16.3431 18 18 18Z" data-figma-gradient-fill="{&#34;type&#34;:&#34;GRADIENT_DIAMOND&#34;,&#34;stops&#34;:[{&#34;color&#34;:{&#34;r&#34;:0.95294117927551270,&#34;g&#34;:0.61568629741668701,&#34;b&#34;:0.58039218187332153,&#34;a&#34;:1.0},&#34;position&#34;:0.0},{&#34;color&#34;:{&#34;r&#34;:0.81568628549575806,&#34;g&#34;:0.15294118225574493,&#34;b&#34;:0.078431375324726105,&#34;a&#34;:1.0},&#34;position&#34;:1.0}],&#34;stopsVar&#34;:[{&#34;color&#34;:{&#34;r&#34;:0.95294117927551270,&#34;g&#34;:0.61568629741668701,&#34;b&#34;:0.58039218187332153,&#34;a&#34;:1.0},&#34;position&#34;:0.0},{&#34;color&#34;:{&#34;r&#34;:0.81568628549575806,&#34;g&#34;:0.15294118225574493,&#34;b&#34;:0.078431375324726105,&#34;a&#34;:1.0},&#34;position&#34;:1.0}],&#34;transform&#34;:{&#34;m00&#34;:-31.977077484130859,&#34;m01&#34;:-51.162502288818359,&#34;m02&#34;:63.558330535888672,&#34;m10&#34;:59.999988555908203,&#34;m11&#34;:-91.938735961914062,&#34;m12&#34;:18.969377517700195},&#34;opacity&#34;:1.0,&#34;blendMode&#34;:&#34;NORMAL&#34;,&#34;visible&#34;:true}"/>
<g clip-path="url(#paint1_diamond_10646_86264_clip_path)" data-figma-skip-parse="true"><g transform="matrix(-0.00266476 0.004 -0.00426354 -0.00612925 18.6648 35)"><rect x="0" y="0" width="1311.28" height="678.847" fill="url(#paint1_diamond_10646_86264)" opacity="1" shape-rendering="crispEdges"/><rect x="0" y="0" width="1311.28" height="678.847" transform="scale(1 -1)" fill="url(#paint1_diamond_10646_86264)" opacity="1" shape-rendering="crispEdges"/><rect x="0" y="0" width="1311.28" height="678.847" transform="scale(-1 1)" fill="url(#paint1_diamond_10646_86264)" opacity="1" shape-rendering="crispEdges"/><rect x="0" y="0" width="1311.28" height="678.847" transform="scale(-1)" fill="url(#paint1_diamond_10646_86264)" opacity="1" shape-rendering="crispEdges"/></g></g><circle cx="18" cy="37" r="2" data-figma-gradient-fill="{&#34;type&#34;:&#34;GRADIENT_DIAMOND&#34;,&#34;stops&#34;:[{&#34;color&#34;:{&#34;r&#34;:0.95294117927551270,&#34;g&#34;:0.61568629741668701,&#34;b&#34;:0.58039218187332153,&#34;a&#34;:1.0},&#34;position&#34;:0.0},{&#34;color&#34;:{&#34;r&#34;:0.81568628549575806,&#34;g&#34;:0.15294118225574493,&#34;b&#34;:0.078431375324726105,&#34;a&#34;:1.0},&#34;position&#34;:1.0}],&#34;stopsVar&#34;:[{&#34;color&#34;:{&#34;r&#34;:0.95294117927551270,&#34;g&#34;:0.61568629741668701,&#34;b&#34;:0.58039218187332153,&#34;a&#34;:1.0},&#34;position&#34;:0.0},{&#34;color&#34;:{&#34;r&#34;:0.81568628549575806,&#34;g&#34;:0.15294118225574493,&#34;b&#34;:0.078431375324726105,&#34;a&#34;:1.0},&#34;position&#34;:1.0}],&#34;transform&#34;:{&#34;m00&#34;:-5.3295130729675293,&#34;m01&#34;:-8.5270833969116211,&#34;m02&#34;:25.593055725097656,&#34;m10&#34;:7.9999985694885254,&#34;m11&#34;:-12.258498191833496,&#34;m12&#34;:37.129249572753906},&#34;opacity&#34;:1.0,&#34;blendMode&#34;:&#34;NORMAL&#34;,&#34;visible&#34;:true}"/>
<defs>
<clipPath id="paint0_diamond_10646_86264_clip_path"><path fill-rule="evenodd" clip-rule="evenodd" d="M18 3C11.3726 3 6 9.00388 6 15.75C6 22.4433 9.82999 29.7186 15.8056 32.5117C17.1986 33.1628 18.8014 33.1628 20.1944 32.5117C26.17 29.7186 30 22.4433 30 15.75C30 9.00388 24.6274 3 18 3ZM18 18C19.6569 18 21 16.6569 21 15C21 13.3431 19.6569 12 18 12C16.3431 12 15 13.3431 15 15C15 16.6569 16.3431 18 18 18Z"/></clipPath><clipPath id="paint1_diamond_10646_86264_clip_path"><circle cx="18" cy="37" r="2"/></clipPath><linearGradient id="paint0_diamond_10646_86264" x1="0" y1="0" x2="500" y2="500" gradientUnits="userSpaceOnUse">
<stop stop-color="#F39D94"/>
<stop offset="1" stop-color="#D02714"/>
</linearGradient>
<linearGradient id="paint1_diamond_10646_86264" x1="0" y1="0" x2="500" y2="500" gradientUnits="userSpaceOnUse">
<stop stop-color="#F39D94"/>
<stop offset="1" stop-color="#D02714"/>
</linearGradient>
</defs>
</svg>
